<mxfile host="app.diagrams.net" modified="2023-05-06T11:01:31.617Z" agent="Mozilla/5.0 (Windows NT 10.0; Win64; x64) AppleWebKit/537.36 (KHTML, like Gecko) Chrome/113.0.0.0 Safari/537.36" etag="mG_qUUMLiS9ugyP0lRe6" version="21.2.9" type="github">
  <diagram name="Page-1" id="ZhcM-OvtB6KIt7osXWqh">
    <mxGraphModel dx="878" dy="496" grid="1" gridSize="10" guides="1" tooltips="1" connect="1" arrows="1" fold="1" page="1" pageScale="1" pageWidth="850" pageHeight="1100" math="0" shadow="0">
      <root>
        <mxCell id="0" />
        <mxCell id="1" parent="0" />
        <mxCell id="x_COpQ-2HeL-LutY7LZ1-1" value="" style="rounded=0;whiteSpace=wrap;html=1;" vertex="1" parent="1">
          <mxGeometry x="310" y="50" width="240" height="60" as="geometry" />
        </mxCell>
        <mxCell id="x_COpQ-2HeL-LutY7LZ1-2" value="" style="endArrow=classic;html=1;rounded=0;" edge="1" parent="1">
          <mxGeometry width="50" height="50" relative="1" as="geometry">
            <mxPoint x="370" y="110" as="sourcePoint" />
            <mxPoint x="300" y="240" as="targetPoint" />
          </mxGeometry>
        </mxCell>
        <mxCell id="x_COpQ-2HeL-LutY7LZ1-3" value="" style="endArrow=classic;html=1;rounded=0;" edge="1" parent="1">
          <mxGeometry width="50" height="50" relative="1" as="geometry">
            <mxPoint x="495" y="110" as="sourcePoint" />
            <mxPoint x="560" y="240" as="targetPoint" />
          </mxGeometry>
        </mxCell>
        <mxCell id="x_COpQ-2HeL-LutY7LZ1-4" value="" style="rounded=0;whiteSpace=wrap;html=1;" vertex="1" parent="1">
          <mxGeometry x="220" y="240" width="160" height="60" as="geometry" />
        </mxCell>
        <mxCell id="x_COpQ-2HeL-LutY7LZ1-5" value="" style="rounded=0;whiteSpace=wrap;html=1;" vertex="1" parent="1">
          <mxGeometry x="490" y="240" width="160" height="60" as="geometry" />
        </mxCell>
        <mxCell id="x_COpQ-2HeL-LutY7LZ1-6" value="" style="endArrow=classic;html=1;rounded=0;" edge="1" parent="1">
          <mxGeometry width="50" height="50" relative="1" as="geometry">
            <mxPoint x="260" y="300" as="sourcePoint" />
            <mxPoint x="220" y="360" as="targetPoint" />
          </mxGeometry>
        </mxCell>
        <mxCell id="x_COpQ-2HeL-LutY7LZ1-7" value="" style="endArrow=classic;html=1;rounded=0;" edge="1" parent="1">
          <mxGeometry width="50" height="50" relative="1" as="geometry">
            <mxPoint x="340" y="300" as="sourcePoint" />
            <mxPoint x="370" y="360" as="targetPoint" />
          </mxGeometry>
        </mxCell>
        <mxCell id="x_COpQ-2HeL-LutY7LZ1-8" value="" style="rounded=0;whiteSpace=wrap;html=1;" vertex="1" parent="1">
          <mxGeometry x="170" y="360" width="100" height="60" as="geometry" />
        </mxCell>
        <mxCell id="x_COpQ-2HeL-LutY7LZ1-9" value="" style="rounded=0;whiteSpace=wrap;html=1;" vertex="1" parent="1">
          <mxGeometry x="310" y="360" width="100" height="60" as="geometry" />
        </mxCell>
        <mxCell id="x_COpQ-2HeL-LutY7LZ1-10" value="" style="endArrow=classic;html=1;rounded=0;" edge="1" parent="1">
          <mxGeometry width="50" height="50" relative="1" as="geometry">
            <mxPoint x="170" y="420" as="sourcePoint" />
            <mxPoint x="150" y="450" as="targetPoint" />
          </mxGeometry>
        </mxCell>
        <mxCell id="x_COpQ-2HeL-LutY7LZ1-11" value="" style="endArrow=classic;html=1;rounded=0;" edge="1" parent="1">
          <mxGeometry width="50" height="50" relative="1" as="geometry">
            <mxPoint x="189" y="422" as="sourcePoint" />
            <mxPoint x="189" y="452" as="targetPoint" />
          </mxGeometry>
        </mxCell>
        <mxCell id="x_COpQ-2HeL-LutY7LZ1-12" value="" style="endArrow=classic;html=1;rounded=0;" edge="1" parent="1">
          <mxGeometry width="50" height="50" relative="1" as="geometry">
            <mxPoint x="229" y="420" as="sourcePoint" />
            <mxPoint x="229" y="450" as="targetPoint" />
          </mxGeometry>
        </mxCell>
        <mxCell id="x_COpQ-2HeL-LutY7LZ1-13" value="" style="endArrow=classic;html=1;rounded=0;" edge="1" parent="1">
          <mxGeometry width="50" height="50" relative="1" as="geometry">
            <mxPoint x="269" y="420" as="sourcePoint" />
            <mxPoint x="269" y="450" as="targetPoint" />
          </mxGeometry>
        </mxCell>
        <mxCell id="x_COpQ-2HeL-LutY7LZ1-14" value="" style="endArrow=classic;html=1;rounded=0;entryX=0.5;entryY=0;entryDx=0;entryDy=0;" edge="1" parent="1" target="x_COpQ-2HeL-LutY7LZ1-23">
          <mxGeometry width="50" height="50" relative="1" as="geometry">
            <mxPoint x="270" y="420" as="sourcePoint" />
            <mxPoint x="290" y="450" as="targetPoint" />
          </mxGeometry>
        </mxCell>
        <mxCell id="x_COpQ-2HeL-LutY7LZ1-17" value="" style="shape=trapezoid;perimeter=trapezoidPerimeter;whiteSpace=wrap;html=1;fixedSize=1;" vertex="1" parent="1">
          <mxGeometry x="130" y="450" width="40" height="30" as="geometry" />
        </mxCell>
        <mxCell id="x_COpQ-2HeL-LutY7LZ1-18" value="" style="shape=trapezoid;perimeter=trapezoidPerimeter;whiteSpace=wrap;html=1;fixedSize=1;" vertex="1" parent="1">
          <mxGeometry x="170" y="450" width="40" height="30" as="geometry" />
        </mxCell>
        <mxCell id="x_COpQ-2HeL-LutY7LZ1-21" value="" style="shape=trapezoid;perimeter=trapezoidPerimeter;whiteSpace=wrap;html=1;fixedSize=1;" vertex="1" parent="1">
          <mxGeometry x="210" y="450" width="40" height="30" as="geometry" />
        </mxCell>
        <mxCell id="x_COpQ-2HeL-LutY7LZ1-22" value="" style="shape=trapezoid;perimeter=trapezoidPerimeter;whiteSpace=wrap;html=1;fixedSize=1;" vertex="1" parent="1">
          <mxGeometry x="250" y="450" width="40" height="30" as="geometry" />
        </mxCell>
        <mxCell id="x_COpQ-2HeL-LutY7LZ1-23" value="" style="shape=trapezoid;perimeter=trapezoidPerimeter;whiteSpace=wrap;html=1;fixedSize=1;" vertex="1" parent="1">
          <mxGeometry x="290" y="450" width="40" height="30" as="geometry" />
        </mxCell>
        <mxCell id="x_COpQ-2HeL-LutY7LZ1-25" value="" style="endArrow=classic;html=1;rounded=0;" edge="1" parent="1">
          <mxGeometry width="50" height="50" relative="1" as="geometry">
            <mxPoint x="144" y="480" as="sourcePoint" />
            <mxPoint x="144" y="520" as="targetPoint" />
          </mxGeometry>
        </mxCell>
        <mxCell id="x_COpQ-2HeL-LutY7LZ1-26" value="" style="endArrow=classic;html=1;rounded=0;" edge="1" parent="1">
          <mxGeometry width="50" height="50" relative="1" as="geometry">
            <mxPoint x="187" y="480" as="sourcePoint" />
            <mxPoint x="187" y="520" as="targetPoint" />
          </mxGeometry>
        </mxCell>
        <mxCell id="x_COpQ-2HeL-LutY7LZ1-27" value="" style="endArrow=classic;html=1;rounded=0;" edge="1" parent="1">
          <mxGeometry width="50" height="50" relative="1" as="geometry">
            <mxPoint x="237" y="482" as="sourcePoint" />
            <mxPoint x="239" y="520" as="targetPoint" />
          </mxGeometry>
        </mxCell>
        <mxCell id="x_COpQ-2HeL-LutY7LZ1-28" value="" style="endArrow=classic;html=1;rounded=0;entryX=0.375;entryY=0;entryDx=0;entryDy=0;" edge="1" parent="1" target="x_COpQ-2HeL-LutY7LZ1-37">
          <mxGeometry width="50" height="50" relative="1" as="geometry">
            <mxPoint x="273" y="482" as="sourcePoint" />
            <mxPoint x="273" y="522" as="targetPoint" />
          </mxGeometry>
        </mxCell>
        <mxCell id="x_COpQ-2HeL-LutY7LZ1-29" value="" style="endArrow=classic;html=1;rounded=0;entryX=0.375;entryY=0;entryDx=0;entryDy=0;" edge="1" parent="1" target="x_COpQ-2HeL-LutY7LZ1-38">
          <mxGeometry width="50" height="50" relative="1" as="geometry">
            <mxPoint x="311" y="482" as="sourcePoint" />
            <mxPoint x="330" y="510" as="targetPoint" />
          </mxGeometry>
        </mxCell>
        <mxCell id="x_COpQ-2HeL-LutY7LZ1-34" value="" style="shape=hexagon;perimeter=hexagonPerimeter2;whiteSpace=wrap;html=1;fixedSize=1;" vertex="1" parent="1">
          <mxGeometry x="120" y="520" width="50" height="40" as="geometry" />
        </mxCell>
        <mxCell id="x_COpQ-2HeL-LutY7LZ1-35" value="" style="shape=hexagon;perimeter=hexagonPerimeter2;whiteSpace=wrap;html=1;fixedSize=1;" vertex="1" parent="1">
          <mxGeometry x="167" y="520" width="50" height="40" as="geometry" />
        </mxCell>
        <mxCell id="x_COpQ-2HeL-LutY7LZ1-36" value="" style="shape=hexagon;perimeter=hexagonPerimeter2;whiteSpace=wrap;html=1;fixedSize=1;" vertex="1" parent="1">
          <mxGeometry x="217" y="520" width="50" height="40" as="geometry" />
        </mxCell>
        <mxCell id="x_COpQ-2HeL-LutY7LZ1-37" value="" style="shape=hexagon;perimeter=hexagonPerimeter2;whiteSpace=wrap;html=1;fixedSize=1;" vertex="1" parent="1">
          <mxGeometry x="267" y="520" width="50" height="40" as="geometry" />
        </mxCell>
        <mxCell id="x_COpQ-2HeL-LutY7LZ1-38" value="" style="shape=hexagon;perimeter=hexagonPerimeter2;whiteSpace=wrap;html=1;fixedSize=1;" vertex="1" parent="1">
          <mxGeometry x="317" y="520" width="50" height="40" as="geometry" />
        </mxCell>
        <mxCell id="x_COpQ-2HeL-LutY7LZ1-39" value="" style="endArrow=classic;html=1;rounded=0;" edge="1" parent="1">
          <mxGeometry width="50" height="50" relative="1" as="geometry">
            <mxPoint x="144.5" y="560" as="sourcePoint" />
            <mxPoint x="144.5" y="590" as="targetPoint" />
          </mxGeometry>
        </mxCell>
        <mxCell id="x_COpQ-2HeL-LutY7LZ1-42" value="" style="endArrow=classic;html=1;rounded=0;" edge="1" parent="1">
          <mxGeometry width="50" height="50" relative="1" as="geometry">
            <mxPoint x="191.5" y="562" as="sourcePoint" />
            <mxPoint x="191.5" y="592" as="targetPoint" />
          </mxGeometry>
        </mxCell>
        <mxCell id="x_COpQ-2HeL-LutY7LZ1-43" value="" style="endArrow=classic;html=1;rounded=0;" edge="1" parent="1">
          <mxGeometry width="50" height="50" relative="1" as="geometry">
            <mxPoint x="240.5" y="561" as="sourcePoint" />
            <mxPoint x="240.5" y="591" as="targetPoint" />
          </mxGeometry>
        </mxCell>
        <mxCell id="x_COpQ-2HeL-LutY7LZ1-44" value="" style="endArrow=classic;html=1;rounded=0;" edge="1" parent="1">
          <mxGeometry width="50" height="50" relative="1" as="geometry">
            <mxPoint x="292.5" y="561" as="sourcePoint" />
            <mxPoint x="292.5" y="591" as="targetPoint" />
          </mxGeometry>
        </mxCell>
        <mxCell id="x_COpQ-2HeL-LutY7LZ1-45" value="" style="endArrow=classic;html=1;rounded=0;" edge="1" parent="1">
          <mxGeometry width="50" height="50" relative="1" as="geometry">
            <mxPoint x="341.5" y="561" as="sourcePoint" />
            <mxPoint x="341.5" y="591" as="targetPoint" />
          </mxGeometry>
        </mxCell>
      </root>
    </mxGraphModel>
  </diagram>
</mxfile>
